<!--?xml version="1.0" standalone="no"?-->
              <svg id="sw-js-blob-svg" viewBox="0 0 100 100" xmlns="http://www.w3.org/2000/svg" version="1.1">
                    <defs> 
                        <linearGradient id="sw-gradient" x1="0" x2="1" y1="1" y2="0">
                            <stop id="stop1" stop-color="rgba(202, 230, 165, 1)" offset="0%"></stop>
                            <stop id="stop2" stop-color="rgba(202, 230, 165, 1)" offset="100%"></stop>
                        </linearGradient>
                    </defs>
                <path fill="url(#sw-gradient)" d="M9.3,-13.9C11.3,-13.2,11.6,-9.3,12.3,-6.1C12.9,-2.9,13.9,-0.4,13.7,2.1C13.5,4.5,12.1,6.9,11.9,14.2C11.6,21.5,12.6,33.8,9.8,35.6C7.1,37.4,0.6,28.6,-3.6,22.6C-7.8,16.6,-9.7,13.4,-15,11C-20.2,8.5,-28.6,6.9,-29.6,3.9C-30.6,0.9,-24.1,-3.6,-20.1,-7.9C-16.1,-12.2,-14.6,-16.3,-11.7,-16.6C-8.7,-16.8,-4.4,-13.3,-0.4,-12.7C3.7,-12.2,7.3,-14.6,9.3,-13.9Z" width="100%" height="100%" transform="translate(50 50)" stroke-width="0" style="transition: all 0.3s ease 0s;" stroke="url(#sw-gradient)"></path>
              </svg>