<!--?xml version="1.0" standalone="no"?-->
              <svg id="sw-js-blob-svg" viewBox="0 0 100 100" xmlns="http://www.w3.org/2000/svg" version="1.1">
                    <defs> 
                        <linearGradient id="sw-gradient" x1="0" x2="1" y1="1" y2="0">
                            <stop id="stop1" stop-color="rgba(202, 230, 165, 1)" offset="0%"></stop>
                            <stop id="stop2" stop-color="rgba(202, 230, 165, 1)" offset="100%"></stop>
                        </linearGradient>
                    </defs>
                <path fill="url(#sw-gradient)" d="M15.8,-26C18.4,-23,16.9,-15,17.5,-9.3C18,-3.5,20.8,-0.1,22.6,4.9C24.5,10,25.6,16.5,23.9,23.4C22.2,30.4,17.7,37.6,11,41.2C4.4,44.8,-4.4,44.8,-12.8,42.7C-21.2,40.6,-29.1,36.4,-28.4,29.1C-27.7,21.9,-18.3,11.6,-17.4,3.8C-16.6,-4,-24.4,-9.4,-24.9,-12.7C-25.4,-16,-18.7,-17.4,-13.4,-19.1C-8,-20.9,-4,-23,1.3,-25C6.6,-27.1,13.3,-29.1,15.8,-26Z" width="100%" height="100%" transform="translate(50 50)" stroke-width="0" style="transition: all 0.3s ease 0s;" stroke="url(#sw-gradient)"></path>
              </svg>