<!--?xml version="1.0" standalone="no"?-->
              <svg id="sw-js-blob-svg" viewBox="0 0 100 100" xmlns="http://www.w3.org/2000/svg" version="1.1">
                    <defs> 
                        <linearGradient id="sw-gradient" x1="0" x2="1" y1="1" y2="0">
                            <stop id="stop1" stop-color="#b0bda2" offset="0%"></stop>
                            <stop id="stop2" stop-color="#b0bda2" offset="100%"></stop>
                        </linearGradient>
                    </defs>
                <path fill="url(#sw-gradient)" d="M23.2,-29C29.8,-22.1,34.6,-14.5,36.3,-6.2C37.9,2.1,36.4,11.1,32.6,19.8C28.8,28.6,22.7,37.1,14.6,39.9C6.6,42.6,-3.4,39.7,-13.1,36.1C-22.7,32.5,-32.1,28.2,-37.8,20.7C-43.4,13.2,-45.4,2.4,-43.7,-7.8C-42,-18,-36.7,-27.7,-28.8,-34.3C-20.9,-41,-10.5,-44.5,-1.1,-43.2C8.3,-41.9,16.6,-35.8,23.2,-29Z" width="100%" height="100%" transform="translate(50 50)" stroke-width="0" style="transition: all 0.3s ease 0s;" stroke="url(#sw-gradient)"></path>
              </svg>