<!--?xml version="1.0" standalone="no"?-->
              <svg id="sw-js-blob-svg" viewBox="0 0 100 100" xmlns="http://www.w3.org/2000/svg" version="1.1">
                    <defs> 
                        <linearGradient id="sw-gradient" x1="0" x2="1" y1="1" y2="0">
                            <stop id="stop1" stop-color="rgba(251, 140, 140, 1)" offset="0%"></stop>
                            <stop id="stop2" stop-color="rgba(255, 211, 117, 1)" offset="100%"></stop>
                        </linearGradient>
                    </defs>
                <path fill="none" d="M9.2,-13.8C14.5,-11,22.9,-12.7,29.8,-10C36.8,-7.3,42.1,-0.2,40.5,5.3C38.8,10.8,30.2,14.7,24.3,20.5C18.4,26.2,15.3,33.7,10.3,35.4C5.3,37.1,-1.6,32.9,-4.9,27.1C-8.2,21.4,-8,14,-9.8,9.7C-11.7,5.4,-15.6,4.1,-20.1,0.3C-24.7,-3.5,-29.9,-9.8,-28.5,-13.1C-27.1,-16.5,-19.1,-16.9,-13.3,-19.4C-7.4,-21.9,-3.7,-26.4,-0.9,-25C2,-23.7,4,-16.5,9.2,-13.8Z" width="100%" height="100%" transform="translate(50 50)" stroke-width="1" style="transition: all 0.3s ease 0s;" stroke="url(#sw-gradient)"></path>
              </svg>