<!--?xml version="1.0" standalone="no"?-->
              <svg id="sw-js-blob-svg" viewBox="0 0 100 100" xmlns="http://www.w3.org/2000/svg" version="1.1">
                    <defs> 
                        <linearGradient id="sw-gradient" x1="0" x2="1" y1="1" y2="0">
                            <stop id="stop1" stop-color="rgba(176, 189, 162, 1)" offset="0%"></stop>
                            <stop id="stop2" stop-color="rgba(41, 71, 74, 1)" offset="100%"></stop>
                        </linearGradient>
                    </defs>
                <path fill="url(#sw-gradient)" d="M15.5,-29.3C17.1,-23,13.6,-13.8,13.7,-7.9C13.9,-2,17.8,0.6,20.9,5.4C24,10.3,26.2,17.5,23.8,20.9C21.3,24.3,14.1,24,7.7,25.5C1.3,27,-4.3,30.4,-9.1,29.6C-14,28.9,-18,24,-23.2,19.4C-28.4,14.7,-34.7,10.3,-32.7,6.3C-30.8,2.4,-20.5,-1.1,-16,-5.9C-11.6,-10.6,-13,-16.4,-11.3,-22.7C-9.6,-29,-4.8,-35.6,1.1,-37.3C6.9,-38.9,13.8,-35.5,15.5,-29.3Z" width="100%" height="100%" transform="translate(50 50)" stroke-width="0" style="transition: all 0.3s ease 0s;" stroke="url(#sw-gradient)"></path>
              </svg>