<!--?xml version="1.0" standalone="no"?-->
              <svg id="sw-js-blob-svg" viewBox="0 0 100 100" xmlns="http://www.w3.org/2000/svg" version="1.1">
                    <defs> 
                        <linearGradient id="sw-gradient" x1="0" x2="1" y1="1" y2="0">
                            <stop id="stop1" stop-color="rgba(41, 71, 74, 1)" offset="0%"></stop>
                            <stop id="stop2" stop-color="rgba(41, 71, 74, 1)" offset="100%"></stop>
                        </linearGradient>
                    </defs>
                <path fill="url(#sw-gradient)" d="M16.2,-21.6C19.1,-16.8,18.5,-10,20,-3.2C21.6,3.5,25.4,10.2,23.8,14.3C22.1,18.4,15,20,7.8,23.6C0.5,27.2,-6.7,32.9,-14.8,33.2C-22.8,33.5,-31.6,28.4,-31.9,21.5C-32.2,14.6,-24,5.9,-22.2,-3.8C-20.3,-13.5,-24.8,-24.3,-22.2,-29.1C-19.6,-33.9,-9.8,-32.9,-1.6,-31C6.6,-29.1,13.2,-26.3,16.2,-21.6Z" width="100%" height="100%" transform="translate(50 50)" stroke-width="0" style="transition: all 0.3s ease 0s;"></path>
              </svg>