<!--?xml version="1.0" standalone="no"?-->
              <svg id="sw-js-blob-svg" viewBox="0 0 100 100" xmlns="http://www.w3.org/2000/svg" version="1.1">
                    <defs> 
                        <linearGradient id="sw-gradient" x1="0" x2="1" y1="1" y2="0">
                            <stop id="stop1" stop-color="rgba(251, 140, 140, 1)" offset="0%"></stop>
                            <stop id="stop2" stop-color="rgba(255, 211, 117, 1)" offset="100%"></stop>
                        </linearGradient>
                    </defs>
                <path fill="none" d="M22.6,-35.8C28.1,-31.7,30.4,-23.3,29.4,-16.2C28.4,-9,24.2,-3.1,20.3,0.8C16.5,4.7,13,6.5,10.7,9.5C8.4,12.5,7.3,16.8,4.3,20.3C1.3,23.7,-3.6,26.4,-8.7,26.4C-13.9,26.5,-19.2,23.9,-25.2,20.1C-31.2,16.3,-37.8,11.3,-37.5,6.1C-37.3,0.8,-30.1,-4.9,-26.9,-12.4C-23.6,-20,-24.4,-29.5,-20.5,-34.3C-16.7,-39.1,-8.4,-39.3,0.1,-39.4C8.6,-39.6,17.2,-39.8,22.6,-35.8Z" width="100%" height="100%" transform="translate(50 50)" stroke-width="1" style="transition: all 0.3s ease 0s;" stroke="url(#sw-gradient)"></path>
              </svg>