<!--?xml version="1.0" standalone="no"?-->
              <svg id="sw-js-blob-svg" viewBox="0 0 100 100" xmlns="http://www.w3.org/2000/svg" version="1.1">
                    <defs> 
                        <linearGradient id="sw-gradient" x1="0" x2="1" y1="1" y2="0">
                            <stop id="stop1" stop-color="rgba(41, 71, 74, 1)" offset="0%"></stop>
                            <stop id="stop2" stop-color="rgba(41, 71, 74, 1)" offset="100%"></stop>
                        </linearGradient>
                    </defs>
                <path fill="url(#sw-gradient)" d="M24.5,-29.9C28.6,-25.7,26.8,-15,24.9,-7.2C22.9,0.7,20.8,5.7,17.1,7.9C13.5,10.2,8.4,9.6,3.7,12.1C-0.9,14.6,-5.2,20.2,-9.1,20.6C-13,21.1,-16.6,16.4,-20.1,11.2C-23.5,6,-26.9,0.3,-24.8,-3.2C-22.8,-6.7,-15.3,-8,-10.2,-12.1C-5.2,-16.2,-2.6,-23.1,3.8,-27.6C10.1,-32.1,20.3,-34.2,24.5,-29.9Z" width="100%" height="100%" transform="translate(50 50)" stroke-width="0" style="transition: all 0.3s ease 0s;"></path>
              </svg>