<!--?xml version="1.0" standalone="no"?-->
              <svg id="sw-js-blob-svg" viewBox="0 0 100 100" xmlns="http://www.w3.org/2000/svg" version="1.1">
                    <defs> 
                        <linearGradient id="sw-gradient" x1="0" x2="1" y1="1" y2="0">
                            <stop id="stop1" stop-color="rgba(41, 71, 74, 1)" offset="0%"></stop>
                            <stop id="stop2" stop-color="rgba(41, 71, 74, 1)" offset="100%"></stop>
                        </linearGradient>
                    </defs>
                <path fill="url(#sw-gradient)" d="M22.7,-30.1C25.9,-24.3,22.6,-13.9,20.1,-6.7C17.7,0.5,16.1,4.5,15.6,12.4C15.1,20.4,15.6,32.3,10.6,38C5.6,43.7,-5,43.2,-14.5,39.8C-24.1,36.4,-32.6,30.1,-37.1,21.7C-41.5,13.4,-41.8,3,-35.2,-1.3C-28.6,-5.6,-15.1,-3.7,-8.1,-8.9C-1.1,-14.1,-0.5,-26.2,4.6,-31.7C9.7,-37.2,19.5,-36,22.7,-30.1Z" width="100%" height="100%" transform="translate(50 50)" stroke-width="0" style="transition: all 0.3s ease 0s;"></path>
              </svg>