<!--?xml version="1.0" standalone="no"?-->
              <svg id="sw-js-blob-svg" viewBox="0 0 100 100" xmlns="http://www.w3.org/2000/svg" version="1.1">
                    <defs> 
                        <linearGradient id="sw-gradient" x1="0" x2="1" y1="1" y2="0">
                            <stop id="stop1" stop-color="rgba(251, 140, 140, 1)" offset="0%"></stop>
                            <stop id="stop2" stop-color="rgba(255, 211, 117, 1)" offset="100%"></stop>
                        </linearGradient>
                    </defs>
                <path fill="url(#sw-gradient)" d="M16.3,-25.9C18,-24.2,14.1,-14.4,15.2,-8.1C16.4,-1.7,22.6,1.2,25,5.6C27.5,9.9,26.1,15.7,23.6,22.7C21.1,29.8,17.3,38.1,11.7,39.6C6.1,41.1,-1.4,35.7,-6.1,30.1C-10.8,24.4,-12.6,18.5,-16.7,14.2C-20.8,10,-27,7.4,-29.2,3.2C-31.4,-1,-29.4,-6.8,-25.5,-10.2C-21.6,-13.5,-15.8,-14.5,-11.2,-14.8C-6.6,-15.1,-3.3,-14.8,2,-17.9C7.3,-21,14.6,-27.5,16.3,-25.9Z" width="100%" height="100%" transform="translate(50 50)" stroke-width="0" style="transition: all 0.3s ease 0s;" stroke="url(#sw-gradient)"></path>
              </svg>