<svg data-v-fde0c5aa="" xmlns="http://www.w3.org/2000/svg" viewBox="0 0 300 300" class="iconAboveSlogan"><!----><defs data-v-fde0c5aa=""><!----></defs><rect data-v-fde0c5aa="" fill="#B0BDA2" x="0" y="0" width="300px" height="300px" class="logo-background-square"></rect><defs data-v-fde0c5aa=""><!----></defs><g data-v-fde0c5aa="" id="c7f63aef-75ce-469d-96a4-81d5c9fc67c7" fill="#29474a" transform="matrix(5.9266468428394266,0,0,5.9266468428394266,26.90355225238052,141.31206363965214)"><path d="M0.49 13.30L4.62 13.30L4.62 12.89C3.18 12.81 3.14 12.78 3.14 12.00L3.14 9.32L3.93 9.32C4.58 9.32 5.21 9.27 5.73 9.14C6.80 8.86 8.04 8.11 8.04 6.36C8.04 5.29 7.57 4.56 6.94 4.17C6.27 3.75 5.38 3.61 4.40 3.61L0.49 3.61L0.49 4.02C1.72 4.10 1.75 4.13 1.75 4.91L1.75 12.00C1.75 12.78 1.72 12.81 0.49 12.89ZM3.14 8.29L3.14 4.62C3.14 4.23 3.29 4.10 4.20 4.10C5.64 4.10 6.52 4.93 6.52 6.45C6.52 8.20 5.38 8.83 4.17 8.83C3.35 8.83 3.14 8.81 3.14 8.29ZM8.68 13.30L12.38 13.30L12.38 12.89C11.13 12.82 11.05 12.80 11.05 12.08L11.05 8.81C11.05 7.73 11.52 7.36 11.84 7.36C12.07 7.36 12.31 7.45 12.71 7.67C12.81 7.73 12.92 7.74 12.99 7.74C13.33 7.74 13.64 7.39 13.64 6.96C13.64 6.65 13.44 6.27 12.89 6.27C12.39 6.27 11.97 6.58 11.05 7.39L10.88 6.27L8.75 6.62L8.75 6.97L9.28 7.04C9.65 7.10 9.73 7.17 9.73 7.67L9.73 12.08C9.73 12.80 9.66 12.82 8.68 12.89ZM14.08 9.93C14.08 12.14 15.04 13.47 17.32 13.47C18.87 13.47 19.67 12.60 20.05 11.49L19.63 11.27C19.24 12.08 18.70 12.75 17.60 12.75C15.86 12.75 15.51 11.07 15.54 9.62L19.57 9.62C19.87 9.62 20.13 9.55 20.13 9.09C20.13 8.26 19.87 6.27 17.30 6.27C15.12 6.27 14.08 7.83 14.08 9.93ZM15.55 9.09C15.55 8.51 15.76 6.76 17.22 6.76C18.52 6.76 18.68 8.09 18.68 8.64C18.68 8.90 18.59 9.09 18.20 9.09ZM20.94 16.11L20.94 16.52L24.57 16.52L24.57 16.11C23.39 16.04 23.31 16.02 23.31 15.30L23.31 13.15C23.60 13.31 24.26 13.47 24.91 13.47C26.80 13.47 28.42 12.60 28.42 9.72C28.42 8.72 28.24 6.27 25.69 6.27C24.67 6.27 23.86 6.96 23.31 7.31L23.13 6.27L21.01 6.62L21.01 6.97L21.55 7.04C21.91 7.10 21.99 7.17 21.99 7.67L21.99 15.30C21.99 16.02 21.92 16.04 20.94 16.11ZM23.31 11.10L23.31 8.81C23.31 8.46 23.37 8.26 23.49 8.01C23.81 7.36 24.42 7.03 25.16 7.03C25.72 7.03 26.96 7.39 26.96 9.80C26.96 11.86 26.32 12.98 24.92 12.98C24.19 12.98 23.63 12.60 23.41 11.96C23.32 11.70 23.31 11.42 23.31 11.10ZM29.60 13.30L33.50 13.30L33.50 12.89C32.28 12.81 32.24 12.78 32.24 12.00L32.24 4.91C32.24 4.13 32.28 4.10 33.50 4.02L33.50 3.61L29.60 3.61L29.60 4.02C30.83 4.10 30.86 4.13 30.86 4.91L30.86 12.00C30.86 12.78 30.83 12.81 29.60 12.89ZM34.09 7.00L35.10 7.00L35.10 11.87C35.10 13.30 36.16 13.47 36.65 13.47C37.37 13.47 38.04 13.10 38.44 12.85L38.33 12.56C38.00 12.70 37.69 12.74 37.34 12.74C36.86 12.74 36.41 12.40 36.41 11.34L36.41 7.00L38.22 7.00L38.22 6.44L36.41 6.44L36.41 4.68L36.01 4.68L35.15 6.44L34.09 6.44ZM39.40 4.34L39.96 10.37L40.36 10.37L40.95 4.34C41.01 3.71 40.94 3.40 40.17 3.40C39.41 3.40 39.34 3.71 39.40 4.34ZM39.28 12.59C39.28 13.09 39.63 13.47 40.17 13.47C40.71 13.47 41.03 13.09 41.05 12.59C41.05 12.07 40.71 11.68 40.17 11.68C39.63 11.68 39.28 12.07 39.28 12.59Z"></path></g><defs data-v-fde0c5aa=""><!----></defs><g data-v-fde0c5aa="" id="a2cae502-8510-40cd-a282-091b54e99d3e" stroke="none" fill="#29474A" transform="matrix(1.361350971799986,0,0,1.361350971799986,82.00052019196188,23.663788338400153)"><switch><g><path d="M95.3 19.2c-1.5 0-2.9.1-4.4.1v-5.1c0-1.2-1-2.2-2.2-2.2-13.4 0-26.5 2.6-38.8 7.8C37.6 14.6 24.6 12 11.2 12 10 12 9 13 9 14.2v5.1c-1.4-.1-2.9-.1-4.4-.1-1.2 0-2.2 1-2.2 2.2v55.1c0 1.2 1 2.2 2.2 2.2 15.3 0 30.3 3.1 44.5 9.1.3.1.6.2.9.2.3 0 .6 0 .9-.2 14.1-6 29.1-9.1 44.4-9.1 1.2 0 2.2-.9 2.2-2.2V21.4c0-1.2-1-2.2-2.2-2.2zM47.8 76.9c-11.1-4.3-22.6-6.7-34.5-7V16.4c11.9.3 23.5 2.7 34.5 7.3v53.2zM86.7 70c-11.9.2-23.4 2.6-34.5 7V23.6c11-4.5 22.6-7 34.5-7.3V70z"></path><path d="M60.5 33.7c.2 0 .4 0 .6-.1 5.7-1.7 11.5-2.9 17.4-3.5 1.2-.1 2-1.2 1.9-2.4-.1-1.2-1.2-2-2.4-1.9-6.1.7-12.2 1.9-18.1 3.7-1.1.3-1.8 1.5-1.5 2.7.3.9 1.2 1.5 2.1 1.5zM78.1 36.3C72 37 65.9 38.2 59.9 40c-1.1.3-1.8 1.5-1.5 2.7.3.9 1.1 1.5 2.1 1.5.2 0 .4 0 .6-.1 5.7-1.7 11.5-2.9 17.4-3.5 1.2-.1 2-1.2 1.9-2.4-.1-1.2-1.1-2.1-2.3-1.9zM78.1 46.7c-6.1.7-12.2 1.9-18.2 3.7-1.1.3-1.8 1.5-1.5 2.7.3.9 1.1 1.5 2.1 1.5.2 0 .4 0 .6-.1 5.7-1.7 11.5-2.9 17.4-3.5 1.2-.1 2-1.2 1.9-2.4-.1-1.1-1.1-2-2.3-1.9zM78.1 57.2c-6.1.7-12.2 1.9-18.2 3.7-1.1.3-1.8 1.5-1.5 2.7.3.9 1.1 1.5 2.1 1.5.2 0 .4 0 .6-.1 5.7-1.7 11.5-2.9 17.4-3.5 1.2-.1 2-1.2 1.9-2.4-.1-1.2-1.1-2-2.3-1.9zM23.1 48.4h1l-1.9 12.4c-.3 1.9 1.2 3.6 3.1 3.6 1.7 0 3.1-1.4 3.1-3.1V29.2c0-.8-.8-1.3-1.5-1-3.6 1.6-6 5.1-6.1 9.1l-.3 8.4c-.1 1.5 1.1 2.7 2.6 2.7zM33.9 41.6h.6L33.3 61c-.1 1.8 1.3 3.3 3.1 3.3h.1c1.8 0 3.2-1.5 3.1-3.3l-1.2-19.4h.6c1.4 0 2.6-1.2 2.6-2.6v-9.8c0-.6-.5-1.1-1.1-1.1-.6 0-1.1.5-1.1 1.1v8.4c0 .3-.3.6-.6.6h-.7c-.3 0-.6-.3-.6-.6v-8.4c0-.6-.5-1.1-1.1-1.1s-1.1.5-1.1 1.1v8.4c0 .3-.3.6-.6.6H34c-.3 0-.6-.3-.6-.6v-8.4c0-.6-.5-1.1-1.1-1.1-.6 0-1.1.5-1.1 1.1V39c.1 1.5 1.3 2.6 2.7 2.6z"></path></g></switch></g><defs data-v-fde0c5aa=""><!----></defs><g data-v-fde0c5aa="" id="9b2738f0-b7ca-48f2-997a-a64087034b86" fill="#29474a" transform="matrix(0.8428244730056822,0,0,0.8428244730056822,59.26572982536283,246.16082208894431)"><path d="M1.89 3.92L0.70 3.92L0.70 4.19C0.70 4.34 0.80 4.42 0.98 4.44L1.12 4.44C1.19 4.44 1.29 4.45 1.43 4.45C1.57 4.45 1.72 4.47 1.89 4.47L1.89 13.26C1.72 13.26 1.57 13.27 1.43 13.27C1.29 13.27 1.19 13.29 1.12 13.29L0.98 13.29C0.80 13.30 0.71 13.38 0.71 13.54L0.71 13.82L1.89 13.82L7.83 13.82L7.83 13.22L7.83 11.76L7.48 11.76C7.28 11.76 7.20 11.89 7.18 12.11C7.18 12.14 7.17 12.19 7.17 12.29C7.17 12.39 7.17 12.53 7.15 12.74C7.14 12.95 7.13 13.09 7.13 13.22L2.60 13.22L2.60 9.09L6.55 9.09L6.55 8.51L2.60 8.51L2.60 4.51L7.13 4.51C7.15 5.12 7.18 5.50 7.18 5.63C7.20 5.85 7.28 5.96 7.48 5.96L7.83 5.96L7.83 4.51L7.83 3.92ZM22.01 13.29L21.91 13.29L21.69 13.29C21.59 13.29 21.48 13.27 21.36 13.27L21.36 9.28C21.36 8.89 21.32 8.55 21.22 8.23C21.13 7.91 20.99 7.64 20.80 7.42C20.62 7.20 20.38 7.03 20.10 6.92C19.82 6.79 19.50 6.73 19.12 6.73C18.62 6.73 18.17 6.83 17.77 7.01C17.36 7.20 16.98 7.48 16.62 7.84L16.73 8.05C16.77 8.13 16.84 8.18 16.94 8.18C17.01 8.18 17.11 8.12 17.21 8.02C17.30 7.92 17.44 7.84 17.61 7.73C17.78 7.62 17.96 7.52 18.20 7.42C18.44 7.32 18.72 7.28 19.05 7.28C19.60 7.28 20.02 7.45 20.30 7.80C20.58 8.15 20.71 8.64 20.71 9.28L20.71 10.01C19.92 10.02 19.25 10.09 18.69 10.21C18.13 10.32 17.67 10.47 17.30 10.65C16.94 10.84 16.69 11.06 16.52 11.31C16.35 11.56 16.27 11.83 16.27 12.12C16.27 12.45 16.32 12.73 16.42 12.95C16.53 13.17 16.67 13.36 16.84 13.50C17.01 13.64 17.22 13.75 17.44 13.82C17.67 13.89 17.89 13.93 18.13 13.93C18.41 13.93 18.68 13.90 18.91 13.85C19.15 13.79 19.36 13.71 19.57 13.61C19.78 13.51 19.98 13.38 20.17 13.23C20.36 13.08 20.54 12.91 20.73 12.73L20.83 13.62C20.86 13.75 20.96 13.82 21.10 13.82L21.11 13.82L21.36 13.82L22.29 13.82L22.29 13.54C22.29 13.38 22.19 13.30 22.01 13.29ZM20.71 12.26C20.54 12.43 20.38 12.60 20.22 12.74C20.05 12.88 19.87 13.01 19.67 13.12C19.47 13.23 19.26 13.30 19.04 13.36C18.82 13.41 18.56 13.44 18.30 13.44C18.12 13.44 17.93 13.43 17.77 13.37C17.60 13.31 17.46 13.24 17.33 13.13C17.21 13.02 17.09 12.88 17.02 12.71C16.94 12.54 16.91 12.35 16.91 12.11C16.91 11.86 16.98 11.63 17.14 11.44C17.29 11.24 17.51 11.09 17.82 10.95C18.13 10.81 18.52 10.70 19.00 10.61C19.47 10.53 20.05 10.47 20.71 10.46ZM32.63 13.93C32.93 13.93 33.21 13.86 33.49 13.75C33.75 13.64 33.98 13.48 34.16 13.29L33.98 12.98C33.94 12.94 33.91 12.92 33.87 12.92C33.84 12.92 33.78 12.94 33.73 12.99C33.67 13.05 33.60 13.09 33.52 13.15C33.43 13.20 33.32 13.26 33.19 13.31C33.07 13.37 32.94 13.38 32.77 13.38C32.63 13.38 32.49 13.36 32.38 13.31C32.27 13.27 32.17 13.20 32.09 13.12C32.00 13.03 31.93 12.92 31.88 12.78C31.82 12.64 31.81 12.49 31.81 12.29L31.81 7.57L34.01 7.57L34.01 7.07L31.81 7.07L31.81 4.41L31.49 4.41C31.43 4.41 31.40 4.44 31.37 4.47C31.35 4.49 31.32 4.54 31.32 4.58L31.15 7.07L29.96 7.15L29.96 7.41C29.96 7.46 29.97 7.49 30.00 7.52C30.03 7.55 30.09 7.57 30.14 7.57L31.14 7.57L31.14 12.33C31.14 12.88 31.26 13.27 31.53 13.54C31.79 13.80 32.16 13.93 32.63 13.93ZM43.30 4.89C43.36 4.94 43.43 4.98 43.50 5.01C43.57 5.04 43.65 5.07 43.74 5.07C43.82 5.07 43.90 5.04 43.97 5.01C44.04 4.98 44.11 4.94 44.17 4.89C44.23 4.83 44.28 4.76 44.31 4.69C44.34 4.62 44.37 4.54 44.37 4.45C44.37 4.37 44.34 4.30 44.31 4.21C44.28 4.14 44.23 4.07 44.17 4.02C44.11 3.96 44.04 3.91 43.97 3.88C43.90 3.85 43.82 3.84 43.74 3.84C43.65 3.84 43.57 3.85 43.50 3.88C43.43 3.91 43.36 3.96 43.30 4.02C43.25 4.07 43.20 4.14 43.18 4.21C43.15 4.28 43.12 4.37 43.12 4.45C43.12 4.54 43.15 4.62 43.18 4.69C43.20 4.76 43.25 4.83 43.30 4.89ZM44.80 13.29L44.73 13.29L44.62 13.29C44.58 13.29 44.51 13.27 44.41 13.27C44.31 13.27 44.20 13.26 44.07 13.26L44.07 6.85L43.40 6.85L42.39 6.85L42.39 7.13C42.39 7.28 42.49 7.36 42.67 7.38L42.74 7.38C42.77 7.38 42.81 7.39 42.85 7.39L43.06 7.39C43.16 7.39 43.27 7.41 43.40 7.41L43.40 13.26C43.25 13.26 43.11 13.29 42.99 13.29L42.76 13.29L42.67 13.29C42.49 13.30 42.39 13.38 42.39 13.54L42.39 13.82L43.40 13.82L44.07 13.82L45.08 13.82L45.08 13.54C45.08 13.38 44.98 13.30 44.80 13.29ZM60.58 13.29L60.51 13.29L60.40 13.29C60.35 13.29 60.28 13.27 60.19 13.27C60.09 13.27 59.98 13.26 59.85 13.26L59.85 9.37C59.85 8.96 59.79 8.60 59.70 8.27C59.60 7.95 59.46 7.67 59.26 7.45C59.07 7.22 58.83 7.06 58.53 6.93C58.24 6.80 57.90 6.75 57.53 6.75C57.01 6.75 56.53 6.87 56.11 7.11C55.69 7.36 55.33 7.67 55.01 8.08L54.95 7.03C54.94 6.92 54.87 6.86 54.74 6.86L54.38 6.86L53.37 6.86L53.37 7.13C53.37 7.28 53.45 7.36 53.63 7.38L53.72 7.38C53.75 7.38 53.77 7.39 53.82 7.39L54.03 7.39C54.12 7.39 54.25 7.41 54.38 7.41L54.38 13.26C54.21 13.26 54.07 13.29 53.96 13.29L53.73 13.29L53.63 13.29C53.45 13.30 53.37 13.38 53.37 13.54L53.37 13.82L54.38 13.82L55.03 13.82L56.04 13.82L56.04 13.54C56.04 13.38 55.96 13.30 55.78 13.29L55.69 13.29L55.59 13.29C55.55 13.29 55.48 13.27 55.38 13.27C55.29 13.27 55.16 13.26 55.03 13.26L55.03 8.60C55.34 8.19 55.69 7.87 56.08 7.63C56.48 7.39 56.90 7.28 57.36 7.28C57.97 7.28 58.44 7.46 58.73 7.83C59.02 8.20 59.18 8.71 59.18 9.37L59.18 13.82L59.85 13.82L60.86 13.82L60.86 13.54C60.86 13.38 60.76 13.30 60.58 13.29ZM71.78 6.73C71.40 6.73 71.06 6.79 70.76 6.90C70.45 7.01 70.20 7.15 69.97 7.35C69.75 7.55 69.58 7.77 69.47 8.05C69.36 8.33 69.29 8.64 69.29 8.97C69.29 9.39 69.38 9.76 69.57 10.08C69.75 10.40 70 10.65 70.34 10.85C70.20 10.92 70.08 11.00 69.97 11.10C69.86 11.20 69.78 11.28 69.71 11.40C69.64 11.51 69.58 11.61 69.54 11.72C69.50 11.83 69.48 11.93 69.48 12.03C69.48 12.29 69.54 12.49 69.68 12.64C69.82 12.80 70 12.89 70.24 12.98C69.82 13.12 69.47 13.33 69.23 13.59C68.99 13.86 68.87 14.18 68.87 14.55C68.87 14.80 68.94 15.05 69.06 15.27C69.19 15.50 69.37 15.69 69.62 15.86C69.87 16.03 70.18 16.17 70.55 16.27C70.91 16.37 71.34 16.42 71.83 16.42C72.31 16.42 72.76 16.35 73.15 16.23C73.54 16.10 73.85 15.95 74.13 15.74C74.41 15.53 74.62 15.29 74.76 15.02C74.90 14.76 74.97 14.49 74.97 14.20C74.97 13.89 74.91 13.64 74.77 13.44C74.63 13.24 74.44 13.12 74.21 13.01C73.99 12.89 73.71 12.82 73.42 12.78C73.12 12.74 72.83 12.71 72.52 12.70C72.21 12.68 71.90 12.66 71.61 12.64C71.32 12.63 71.05 12.61 70.83 12.56C70.60 12.50 70.41 12.43 70.27 12.32C70.13 12.21 70.06 12.05 70.06 11.86C70.06 11.72 70.11 11.56 70.22 11.41C70.34 11.26 70.49 11.13 70.69 11.02C71.01 11.14 71.37 11.19 71.78 11.19C72.14 11.19 72.48 11.14 72.79 11.03C73.09 10.92 73.35 10.78 73.57 10.58C73.79 10.39 73.95 10.16 74.07 9.88C74.20 9.60 74.26 9.31 74.26 8.97C74.26 8.72 74.23 8.48 74.16 8.26C74.09 8.04 73.98 7.84 73.85 7.66L74.91 7.57C75.04 7.56 75.11 7.50 75.11 7.39L75.11 7.15L73.32 7.15C73.11 7.01 72.87 6.92 72.62 6.85C72.37 6.78 72.09 6.73 71.78 6.73ZM74.37 14.29C74.37 14.53 74.30 14.74 74.17 14.94C74.05 15.13 73.86 15.33 73.64 15.47C73.42 15.61 73.15 15.72 72.84 15.81C72.53 15.89 72.20 15.92 71.85 15.92C71.47 15.92 71.13 15.88 70.84 15.81C70.55 15.74 70.28 15.62 70.08 15.50C69.89 15.37 69.73 15.22 69.62 15.05C69.51 14.88 69.47 14.69 69.47 14.48C69.47 14.31 69.51 14.17 69.57 14.03C69.62 13.89 69.71 13.76 69.82 13.65C69.93 13.54 70.04 13.43 70.20 13.34C70.35 13.26 70.52 13.17 70.70 13.10C70.94 13.15 71.19 13.17 71.47 13.19C71.75 13.20 72.00 13.22 72.28 13.23C72.56 13.24 72.81 13.26 73.07 13.29C73.32 13.31 73.54 13.38 73.74 13.45C73.93 13.52 74.07 13.62 74.19 13.76C74.30 13.90 74.37 14.07 74.37 14.29ZM71.78 10.74C71.48 10.74 71.23 10.70 70.99 10.61C70.76 10.53 70.56 10.40 70.39 10.25C70.22 10.09 70.11 9.91 70.03 9.70C69.94 9.49 69.90 9.25 69.90 8.99C69.90 8.72 69.94 8.48 70.03 8.26C70.11 8.04 70.22 7.87 70.39 7.71C70.56 7.56 70.76 7.43 70.99 7.35C71.23 7.27 71.48 7.22 71.78 7.22C72.07 7.22 72.34 7.27 72.56 7.35C72.79 7.43 72.98 7.56 73.15 7.71C73.32 7.87 73.44 8.04 73.53 8.26C73.61 8.48 73.65 8.71 73.65 8.97C73.65 9.24 73.61 9.49 73.53 9.70C73.44 9.91 73.32 10.09 73.16 10.25C73.01 10.40 72.81 10.53 72.58 10.61C72.34 10.70 72.07 10.74 71.78 10.74ZM104.55 13.29L104.47 13.29L104.37 13.29C104.33 13.29 104.26 13.27 104.16 13.27C104.06 13.27 103.94 13.26 103.81 13.26L103.81 9.37C103.81 8.95 103.75 8.57 103.66 8.25C103.56 7.92 103.42 7.64 103.22 7.42C103.03 7.20 102.79 7.03 102.51 6.92C102.23 6.80 101.93 6.75 101.58 6.75C101.35 6.75 101.09 6.78 100.87 6.85C100.65 6.92 100.44 7.01 100.24 7.15C100.04 7.29 99.86 7.46 99.71 7.67C99.55 7.88 99.44 8.13 99.36 8.43C99.25 7.90 99.05 7.48 98.74 7.18C98.43 6.89 98.03 6.75 97.52 6.75C97.30 6.75 97.09 6.76 96.89 6.83C96.70 6.89 96.52 6.99 96.33 7.10C96.17 7.21 96.00 7.36 95.84 7.52C95.69 7.67 95.55 7.84 95.41 8.04L95.35 7.03C95.34 6.92 95.27 6.86 95.14 6.86L94.78 6.86L93.77 6.86L93.77 7.13C93.77 7.28 93.86 7.36 94.04 7.38L94.12 7.38C94.15 7.38 94.18 7.39 94.22 7.39L94.43 7.39C94.53 7.39 94.65 7.41 94.78 7.41L94.78 13.26C94.61 13.26 94.47 13.29 94.36 13.29L94.14 13.29L94.04 13.29C93.86 13.30 93.77 13.38 93.77 13.54L93.77 13.82L94.78 13.82L95.44 13.82L96.45 13.82L96.45 13.54C96.45 13.38 96.36 13.30 96.18 13.29L96.10 13.29L96.00 13.29C95.96 13.29 95.89 13.27 95.79 13.27C95.69 13.27 95.56 13.26 95.44 13.26L95.44 8.55C95.69 8.15 95.98 7.84 96.31 7.62C96.63 7.39 96.98 7.28 97.36 7.28C97.87 7.28 98.27 7.45 98.53 7.81C98.80 8.18 98.94 8.69 98.94 9.37L98.94 13.82L99.61 13.82L99.61 13.82L100.62 13.82L100.62 13.54C100.62 13.38 100.52 13.30 100.34 13.29L100.27 13.29L100.16 13.29C100.11 13.29 100.04 13.27 99.95 13.27C99.85 13.27 99.74 13.26 99.61 13.26L99.61 9.37C99.61 9.02 99.65 8.72 99.75 8.46C99.85 8.19 99.99 7.97 100.16 7.80C100.32 7.63 100.52 7.49 100.74 7.41C100.97 7.32 101.21 7.28 101.44 7.28C101.99 7.28 102.41 7.46 102.70 7.81C103.00 8.18 103.15 8.68 103.15 9.37L103.15 13.82L103.81 13.82L104.82 13.82L104.82 13.54C104.82 13.38 104.73 13.30 104.55 13.29ZM118.71 13.29L118.61 13.29L118.38 13.29C118.29 13.29 118.17 13.27 118.06 13.27L118.06 9.28C118.06 8.89 118.02 8.55 117.92 8.23C117.82 7.91 117.68 7.64 117.50 7.42C117.32 7.20 117.08 7.03 116.80 6.92C116.52 6.79 116.20 6.73 115.82 6.73C115.32 6.73 114.87 6.83 114.46 7.01C114.06 7.20 113.68 7.48 113.32 7.84L113.43 8.05C113.47 8.13 113.54 8.18 113.64 8.18C113.71 8.18 113.81 8.12 113.90 8.02C114.00 7.92 114.14 7.84 114.31 7.73C114.48 7.62 114.66 7.52 114.90 7.42C115.14 7.32 115.42 7.28 115.75 7.28C116.30 7.28 116.72 7.45 117.00 7.80C117.28 8.15 117.40 8.64 117.40 9.28L117.40 10.01C116.62 10.02 115.95 10.09 115.39 10.21C114.83 10.32 114.37 10.47 114.00 10.65C113.64 10.84 113.39 11.06 113.22 11.31C113.05 11.56 112.97 11.83 112.97 12.12C112.97 12.45 113.02 12.73 113.12 12.95C113.23 13.17 113.37 13.36 113.54 13.50C113.71 13.64 113.92 13.75 114.14 13.82C114.37 13.89 114.59 13.93 114.83 13.93C115.11 13.93 115.37 13.90 115.61 13.85C115.85 13.79 116.06 13.71 116.27 13.61C116.48 13.51 116.68 13.38 116.87 13.23C117.05 13.08 117.24 12.91 117.43 12.73L117.53 13.62C117.56 13.75 117.66 13.82 117.80 13.82L117.81 13.82L118.06 13.82L118.99 13.82L118.99 13.54C118.99 13.38 118.89 13.30 118.71 13.29ZM117.40 12.26C117.24 12.43 117.08 12.60 116.91 12.74C116.75 12.88 116.56 13.01 116.37 13.12C116.17 13.23 115.96 13.30 115.74 13.36C115.51 13.41 115.26 13.44 115.00 13.44C114.81 13.44 114.63 13.43 114.46 13.37C114.30 13.31 114.16 13.24 114.03 13.13C113.90 13.02 113.79 12.88 113.72 12.71C113.64 12.54 113.61 12.35 113.61 12.11C113.61 11.86 113.68 11.63 113.83 11.44C113.99 11.24 114.21 11.09 114.52 10.95C114.83 10.81 115.22 10.70 115.70 10.61C116.17 10.53 116.75 10.47 117.40 10.46ZM133.88 13.54C133.88 13.38 133.80 13.30 133.62 13.29L133.55 13.29L133.45 13.29C133.41 13.29 133.34 13.27 133.25 13.27L132.94 13.27L132.94 3.63L132.29 3.63L131.28 3.63L131.28 3.91C131.28 4.06 131.38 4.14 131.56 4.16L131.63 4.16C131.66 4.16 131.68 4.17 131.73 4.17L131.95 4.17C132.05 4.17 132.16 4.19 132.29 4.19L132.29 7.76C132.03 7.42 131.74 7.17 131.39 7.00C131.04 6.82 130.63 6.73 130.16 6.73C129.67 6.73 129.23 6.83 128.86 7.01C128.48 7.20 128.17 7.46 127.90 7.78C127.64 8.11 127.46 8.50 127.32 8.93C127.18 9.37 127.12 9.84 127.12 10.35C127.12 11.54 127.36 12.43 127.83 13.02C128.31 13.61 128.98 13.90 129.84 13.90C130.35 13.90 130.82 13.79 131.24 13.54C131.66 13.29 132.01 12.95 132.31 12.53L132.38 13.64C132.40 13.76 132.47 13.82 132.58 13.82L132.94 13.82L133.88 13.82L133.88 13.61ZM132.29 12.01C131.99 12.43 131.66 12.77 131.28 13.01C130.90 13.24 130.49 13.37 130.03 13.37C129.32 13.37 128.76 13.13 128.38 12.64C128.00 12.15 127.81 11.38 127.81 10.35C127.81 9.88 127.85 9.48 127.96 9.10C128.07 8.72 128.23 8.39 128.44 8.12C128.65 7.85 128.90 7.63 129.21 7.48C129.51 7.32 129.88 7.25 130.28 7.25C130.69 7.25 131.07 7.34 131.39 7.50C131.71 7.67 132.02 7.95 132.29 8.34ZM145.11 6.73C144.62 6.73 144.17 6.83 143.78 7.00C143.39 7.17 143.07 7.41 142.80 7.71C142.53 8.02 142.32 8.39 142.18 8.81C142.04 9.23 141.96 9.69 141.96 10.19C141.96 10.78 142.04 11.31 142.20 11.77C142.35 12.24 142.56 12.61 142.84 12.94C143.12 13.26 143.46 13.50 143.85 13.66C144.24 13.83 144.68 13.90 145.15 13.90C145.42 13.90 145.68 13.89 145.94 13.83C146.19 13.78 146.44 13.71 146.66 13.62C146.89 13.54 147.10 13.44 147.28 13.31C147.46 13.19 147.62 13.06 147.73 12.92L147.55 12.70C147.52 12.66 147.46 12.63 147.41 12.63C147.36 12.63 147.28 12.66 147.18 12.74C147.08 12.82 146.94 12.91 146.76 13.01C146.59 13.10 146.37 13.17 146.12 13.26C145.87 13.34 145.56 13.38 145.21 13.38C144.82 13.38 144.47 13.31 144.14 13.17C143.82 13.03 143.56 12.84 143.33 12.57C143.11 12.31 142.94 11.97 142.81 11.58C142.69 11.19 142.63 10.71 142.63 10.19L142.63 10.07L147.66 10.07C147.73 10.07 147.77 10.05 147.80 10.01C147.83 9.97 147.85 9.90 147.85 9.80C147.85 9.31 147.78 8.88 147.64 8.50C147.50 8.12 147.32 7.78 147.07 7.53C146.83 7.28 146.54 7.08 146.20 6.94C145.87 6.80 145.50 6.73 145.11 6.73ZM145.12 7.24C145.45 7.24 145.73 7.29 145.99 7.41C146.26 7.52 146.48 7.67 146.66 7.88C146.85 8.09 147 8.33 147.10 8.62C147.20 8.92 147.25 9.25 147.25 9.63L142.66 9.63C142.70 9.27 142.79 8.93 142.91 8.64C143.04 8.34 143.21 8.09 143.42 7.88C143.63 7.67 143.88 7.52 144.16 7.41C144.44 7.29 144.76 7.24 145.12 7.24ZM169.44 6.73C168.95 6.73 168.50 6.83 168.11 7.00C167.72 7.17 167.40 7.41 167.13 7.71C166.87 8.02 166.66 8.39 166.52 8.81C166.38 9.23 166.29 9.69 166.29 10.19C166.29 10.78 166.38 11.31 166.53 11.77C166.68 12.24 166.89 12.61 167.17 12.94C167.45 13.26 167.79 13.50 168.18 13.66C168.57 13.83 169.01 13.90 169.48 13.90C169.75 13.90 170.02 13.89 170.27 13.83C170.52 13.78 170.77 13.71 171.00 13.62C171.22 13.54 171.43 13.44 171.61 13.31C171.79 13.19 171.95 13.06 172.06 12.92L171.88 12.70C171.85 12.66 171.79 12.63 171.74 12.63C171.70 12.63 171.61 12.66 171.51 12.74C171.42 12.82 171.28 12.91 171.09 13.01C170.93 13.10 170.70 13.17 170.45 13.26C170.20 13.34 169.89 13.38 169.54 13.38C169.15 13.38 168.80 13.31 168.48 13.17C168.15 13.03 167.89 12.84 167.66 12.57C167.44 12.31 167.27 11.97 167.15 11.58C167.02 11.19 166.96 10.71 166.96 10.19L166.96 10.07L171.99 10.07C172.06 10.07 172.10 10.05 172.13 10.01C172.16 9.97 172.19 9.90 172.19 9.80C172.19 9.31 172.12 8.88 171.98 8.50C171.84 8.12 171.65 7.78 171.40 7.53C171.16 7.28 170.87 7.08 170.53 6.94C170.20 6.80 169.83 6.73 169.44 6.73ZM169.46 7.24C169.78 7.24 170.06 7.29 170.32 7.41C170.59 7.52 170.81 7.67 171.00 7.88C171.18 8.09 171.33 8.33 171.43 8.62C171.53 8.92 171.58 9.25 171.58 9.63L166.99 9.63C167.03 9.27 167.12 8.93 167.24 8.64C167.37 8.34 167.54 8.09 167.75 7.88C167.96 7.67 168.21 7.52 168.49 7.41C168.77 7.29 169.09 7.24 169.46 7.24ZM186.02 13.29L185.92 13.29L185.70 13.29C185.60 13.29 185.49 13.27 185.37 13.27L185.37 9.28C185.37 8.89 185.33 8.55 185.23 8.23C185.14 7.91 185.00 7.64 184.81 7.42C184.63 7.20 184.39 7.03 184.11 6.92C183.83 6.79 183.51 6.73 183.13 6.73C182.63 6.73 182.18 6.83 181.78 7.01C181.37 7.20 180.99 7.48 180.63 7.84L180.74 8.05C180.78 8.13 180.85 8.18 180.95 8.18C181.02 8.18 181.12 8.12 181.22 8.02C181.31 7.92 181.45 7.84 181.62 7.73C181.79 7.62 181.97 7.52 182.21 7.42C182.45 7.32 182.73 7.28 183.06 7.28C183.61 7.28 184.03 7.45 184.31 7.80C184.59 8.15 184.72 8.64 184.72 9.28L184.72 10.01C183.93 10.02 183.26 10.09 182.70 10.21C182.14 10.32 181.68 10.47 181.31 10.65C180.95 10.84 180.70 11.06 180.53 11.31C180.36 11.56 180.28 11.83 180.28 12.12C180.28 12.45 180.33 12.73 180.43 12.95C180.54 13.17 180.68 13.36 180.85 13.50C181.02 13.64 181.23 13.75 181.45 13.82C181.68 13.89 181.90 13.93 182.14 13.93C182.42 13.93 182.69 13.90 182.92 13.85C183.16 13.79 183.37 13.71 183.58 13.61C183.79 13.51 183.99 13.38 184.18 13.23C184.37 13.08 184.55 12.91 184.74 12.73L184.84 13.62C184.87 13.75 184.97 13.82 185.11 13.82L185.12 13.82L185.37 13.82L186.30 13.82L186.30 13.54C186.30 13.38 186.20 13.30 186.02 13.29ZM184.72 12.26C184.55 12.43 184.39 12.60 184.23 12.74C184.06 12.88 183.88 13.01 183.68 13.12C183.48 13.23 183.27 13.30 183.05 13.36C182.83 13.41 182.57 13.44 182.31 13.44C182.13 13.44 181.94 13.43 181.78 13.37C181.61 13.31 181.47 13.24 181.34 13.13C181.22 13.02 181.10 12.88 181.03 12.71C180.95 12.54 180.92 12.35 180.92 12.11C180.92 11.86 180.99 11.63 181.15 11.44C181.30 11.24 181.52 11.09 181.83 10.95C182.14 10.81 182.53 10.70 183.01 10.61C183.48 10.53 184.06 10.47 184.72 10.46ZM199.15 11.06C199.04 10.86 198.90 10.71 198.72 10.57C198.53 10.43 198.32 10.32 198.10 10.23C197.88 10.15 197.62 10.05 197.39 9.98C197.15 9.91 196.91 9.83 196.67 9.76C196.45 9.69 196.24 9.59 196.06 9.49C195.87 9.39 195.73 9.27 195.62 9.13C195.51 8.99 195.45 8.81 195.45 8.58C195.45 8.40 195.48 8.23 195.57 8.08C195.65 7.92 195.76 7.77 195.92 7.64C196.06 7.52 196.24 7.43 196.45 7.36C196.66 7.29 196.88 7.25 197.13 7.25C197.50 7.25 197.86 7.31 198.24 7.43C198.25 7.60 198.27 7.77 198.28 7.92C198.30 8.08 198.30 8.19 198.31 8.27C198.32 8.36 198.32 8.43 198.32 8.44C198.34 8.67 198.44 8.78 198.63 8.78L198.97 8.78L198.97 7.11C198.24 6.86 197.62 6.75 197.12 6.75C196.77 6.75 196.45 6.80 196.17 6.90C195.89 7.00 195.64 7.14 195.44 7.31C195.24 7.48 195.09 7.69 194.98 7.91C194.87 8.13 194.82 8.37 194.82 8.62C194.82 8.92 194.88 9.16 194.99 9.35C195.10 9.55 195.24 9.70 195.43 9.84C195.61 9.98 195.80 10.09 196.04 10.18C196.27 10.26 196.50 10.35 196.76 10.42C196.99 10.49 197.23 10.57 197.47 10.64C197.69 10.71 197.90 10.81 198.09 10.92C198.27 11.03 198.42 11.16 198.53 11.31C198.65 11.47 198.70 11.65 198.70 11.89C198.70 12.10 198.66 12.29 198.59 12.49C198.51 12.68 198.39 12.84 198.24 12.98C198.09 13.12 197.90 13.23 197.68 13.31C197.46 13.40 197.20 13.44 196.91 13.44C196.38 13.44 195.93 13.37 195.55 13.22C195.54 13.03 195.52 12.87 195.51 12.71C195.50 12.56 195.50 12.43 195.48 12.35C195.47 12.26 195.47 12.19 195.47 12.18C195.45 11.96 195.36 11.84 195.16 11.84L194.82 11.84L194.82 13.54C195.50 13.79 196.18 13.93 196.88 13.93C197.27 13.93 197.61 13.87 197.92 13.76C198.23 13.65 198.48 13.50 198.69 13.30C198.90 13.10 199.05 12.89 199.16 12.63C199.28 12.36 199.33 12.08 199.33 11.77C199.33 11.49 199.26 11.26 199.15 11.06ZM214.09 6.86L213.57 6.86L212.17 6.86L212.17 7.13C212.17 7.28 212.27 7.36 212.45 7.38L212.52 7.38C212.55 7.38 212.58 7.39 212.62 7.39L212.83 7.39C212.93 7.39 213.04 7.41 213.16 7.41L211.02 12.45L210.94 12.66C210.91 12.73 210.90 12.80 210.87 12.87C210.85 12.80 210.81 12.73 210.80 12.66C210.77 12.59 210.76 12.52 210.73 12.45L208.56 7.41C208.71 7.41 208.85 7.39 208.96 7.39C209.08 7.39 209.16 7.38 209.19 7.38L209.27 7.38C209.45 7.36 209.55 7.28 209.55 7.13L209.55 6.86L208.14 6.86L208.14 6.86L207.58 6.86L207.12 6.86L207.12 7.13C207.12 7.28 207.21 7.36 207.40 7.38C207.40 7.38 207.54 7.38 207.82 7.39L210.53 13.57L209.30 16.28L209.78 16.28C209.86 16.28 209.93 16.25 209.97 16.21C210.01 16.17 210.06 16.13 210.08 16.06L213.85 7.39L214.10 7.39C214.19 7.39 214.23 7.38 214.26 7.38L214.33 7.38C214.51 7.36 214.61 7.28 214.61 7.13L214.61 6.86Z"></path></g></svg>