<svg data-v-fde0c5aa="" xmlns="http://www.w3.org/2000/svg" viewBox="-16 -16 130 130" class="iconCenter"><!----><defs data-v-fde0c5aa=""><!----></defs><rect data-v-fde0c5aa="" fill="#b0bda2" x="-16" y="-16" width="300px" height="300px" class="logo-background-square"></rect><defs data-v-fde0c5aa=""><!----></defs><g data-v-fde0c5aa="" id="892c0064-38ad-43d1-95ed-9bf4c8de41e5" fill="#29474a"><path d=""></path></g><defs data-v-fde0c5aa=""><!----></defs><g data-v-fde0c5aa="" id="b12255db-82ea-4074-b0fa-8c315df9c94c" stroke="none" fill="#29474a"><switch><g><path d="M90.997 39.11c7.617-7.349 10.87-18.862 7.93-29.01-.234-.796-.762-1.089-1.172-1.196-.713-.19-1.543.059-2.012.605l-.078.088-.117.039c-2.363.859-4.814 1.626-7.188 2.363-3.535 1.099-7.129 2.252-10.576 3.731-.576-3.453-1.748-6.798-3.564-9.82-.42-.708-1.016-.859-1.436-.859-.742 0-1.475.454-1.797 1.099l-.049.107-.098.068c-2.071 1.431-4.249 2.798-6.349 4.111-5.137 3.218-10.439 6.539-14.57 11.109-3.047 3.379-4.98 7.188-5.674 11.074C19.472 33.305.105 39.115.105 46.187c0 0-3.232 27.267 26.075 40.899 0 0 .278 1.025-.542 2.402-.312.557-3.638 1.031-3.638 1.929v.024c0 2.755 12.108 3.507 24.834 3.507 12.725 0 25.166-.747 25.166-3.507v-.02c0-.898-1.254-1.377-1.576-1.934-.82-1.377 1.469-2.402 1.469-2.402 26.689-12.412 26.423-36.129 26.169-40.27.039-.21.071-.415.071-.63 0-2.591-2.614-5.009-7.136-7.075zm-1.475-23.74c1.973-.596 4.004-1.216 5.967-1.891l.498-.176.088.528c1.504 9.058-2.295 18.53-9.893 24.727-4.785 3.897-11.445 5.777-19.767 5.646 2.236-1.685 4.229-3.6 5.899-5.792 4.131-5.41 6.094-12.236 5.83-18.95 3.673-1.709 7.56-2.935 11.378-4.092zM47.549 34.906c.215-3.945 2.158-7.891 5.781-11.733 3.77-3.999 8.535-6.929 13.135-9.771 1.758-1.079 3.575-2.192 5.294-3.345l.439-.298.215.488c3.76 8.375 2.51 18.502-3.262 26.432-3.917 5.376-10.499 9.063-19.571 10.958l-.439.088-.156-.728c-.811-3.911-1.651-7.96-1.436-12.091zm1.865 21.71c-24.669 0-44.67-4.57-44.67-10.21 0-5.221 17.101-9.518 39.191-10.138-.039 3.867.752 7.74 1.543 11.51l.215 1.035.039.166-.029.117c-.156.542-.01 1.226.381 1.748.215.288.703.776 1.514.776.117 0 .234-.01.352-.029 5.02-.82 9.453-2.236 13.32-4.189.088.039.166.088.264.112.107.029.225.049.342.063 10.694 1.03 19.581-1.069 26.437-6.197 3.672 1.485 5.771 3.199 5.771 5.025-.001 5.641-20.001 10.211-44.67 10.211z"></path></g></switch></g><!----></svg>