<svg data-v-fde0c5aa="" xmlns="http://www.w3.org/2000/svg" viewBox="0 0 300 300" class="iconAbove"><!----><defs data-v-fde0c5aa=""><!----></defs><rect data-v-fde0c5aa="" fill="#b0bda2" x="0" y="0" width="300px" height="300px" class="logo-background-square"></rect><defs data-v-fde0c5aa=""><!----></defs><g data-v-fde0c5aa="" id="1ef894fa-7d61-492c-a9ea-e0b7f94da2e5" fill="#29474a" transform="matrix(4.363793659316081,0,0,4.363793659316081,64.18600097724324,171.41499204519388)"><path d="M10.95 7.63L10.95 7.63L10.95 7.63Q10.95 8.40 10.56 9.10L10.56 9.10L10.56 9.10Q10.18 9.80 9.53 10.32L9.53 10.32L9.53 10.32Q8.88 10.85 8.00 11.16L8.00 11.16L8.00 11.16Q7.13 11.47 6.15 11.47L6.15 11.47L6.15 11.47Q5.80 11.47 5.59 11.38L5.59 11.38L5.59 11.38Q5.39 11.28 5.14 11.02L5.14 11.02L5.14 11.02Q4.44 12.54 4.00 13.82L4.00 13.82L4.00 13.82Q3.56 15.11 3.30 16.31L3.30 16.31L3.30 16.31Q2.77 16.18 2.44 15.87L2.44 15.87L2.44 15.87Q2.10 15.55 1.82 15.08L1.82 15.08L1.82 15.08Q1.96 14.81 2.16 14.38L2.16 14.38L2.16 14.38Q2.35 13.94 2.63 13.31L2.63 13.31L2.63 13.31Q2.91 12.67 3.28 11.78L3.28 11.78L3.28 11.78Q3.65 10.89 4.16 9.70L4.16 9.70L4.16 9.70Q4.38 9.16 4.55 8.75L4.55 8.75L4.55 8.75Q4.72 8.34 4.84 7.99L4.84 7.99L4.84 7.99Q4.97 7.63 5.08 7.28L5.08 7.28L5.08 7.28Q5.18 6.93 5.29 6.51L5.29 6.51L5.29 6.51Q4.63 6.72 4.08 7L4.08 7L4.08 7Q3.53 7.28 3.16 7.59L3.16 7.59L3.16 7.59Q3.04 7.50 2.91 7.34L2.91 7.34L2.91 7.34Q2.77 7.17 2.66 6.96L2.66 6.96L2.66 6.96Q2.55 6.76 2.46 6.55L2.46 6.55L2.46 6.55Q2.38 6.34 2.37 6.17L2.37 6.17L2.37 6.17Q2.77 5.89 3.37 5.66L3.37 5.66L3.37 5.66Q3.98 5.42 4.66 5.24L4.66 5.24L4.66 5.24Q5.35 5.07 6.08 4.97L6.08 4.97L6.08 4.97Q6.82 4.87 7.49 4.87L7.49 4.87L7.49 4.87Q8.29 4.87 8.93 5.07L8.93 5.07L8.93 5.07Q9.58 5.28 10.02 5.64L10.02 5.64L10.02 5.64Q10.47 6.01 10.71 6.51L10.71 6.51L10.71 6.51Q10.95 7.01 10.95 7.63ZM8.46 5.95L8.46 5.95L8.46 5.95Q7.92 5.95 7.36 6.03L7.36 6.03L7.53 6.29L7.53 6.29Q7.39 6.47 7.18 6.83L7.18 6.83L7.18 6.83Q6.97 7.20 6.72 7.71L6.72 7.71L6.72 7.71Q6.47 8.22 6.17 8.85L6.17 8.85L6.17 8.85Q5.87 9.48 5.53 10.18L5.53 10.18L5.53 10.18Q6.62 10.18 7.52 9.97L7.52 9.97L7.52 9.97Q8.41 9.77 9.05 9.41L9.05 9.41L9.05 9.41Q9.69 9.06 10.04 8.58L10.04 8.58L10.04 8.58Q10.40 8.11 10.40 7.56L10.40 7.56L10.40 7.56Q10.40 6.83 9.91 6.39L9.91 6.39L9.91 6.39Q9.42 5.95 8.46 5.95ZM9.91 14.90L9.91 14.90L9.91 14.90Q9.98 14.49 10.16 13.82L10.16 13.82L10.16 13.82Q10.33 13.16 10.57 12.41L10.57 12.41L10.57 12.41Q10.81 11.66 11.07 10.91L11.07 10.91L11.07 10.91Q11.34 10.15 11.59 9.55L11.59 9.55L11.59 9.55Q11.77 9.11 11.91 8.87L11.91 8.87L11.91 8.87Q12.05 8.62 12.22 8.46L12.22 8.46L12.22 8.46Q12.42 8.48 12.63 8.55L12.63 8.55L12.63 8.55Q12.84 8.62 13.03 8.72L13.03 8.72L13.03 8.72Q13.23 8.82 13.38 8.93L13.38 8.93L13.38 8.93Q13.54 9.03 13.62 9.13L13.62 9.13L13.62 9.13Q13.24 9.58 12.96 10.15L12.96 10.15L12.96 10.15Q12.67 10.72 12.38 11.62L12.38 11.62L12.38 11.62Q13.13 10.95 13.71 10.33L13.71 10.33L13.71 10.33Q14.29 9.72 14.80 8.96L14.80 8.96L14.80 8.96Q14.88 8.89 15.09 8.89L15.09 8.89L15.09 8.89Q15.29 8.89 15.47 8.95L15.47 8.95L15.47 8.95Q15.65 9.02 15.72 9.13L15.72 9.13L15.72 9.13Q15.47 9.80 15.47 10.46L15.47 10.46L15.47 10.46Q15.47 11.07 15.65 11.38L15.65 11.38L15.65 11.38Q15.64 11.47 15.46 11.70L15.46 11.70L15.46 11.70Q15.29 11.94 15.08 12.15L15.08 12.15L15.08 12.15Q14.70 11.96 14.41 11.61L14.41 11.61L14.41 11.61Q14.11 11.27 13.97 10.86L13.97 10.86L13.97 10.86Q13.31 11.33 12.85 11.77L12.85 11.77L12.85 11.77Q12.39 12.21 12.06 12.75L12.06 12.75L12.06 12.75Q11.73 13.29 11.50 13.99L11.50 13.99L11.50 13.99Q11.27 14.69 11.06 15.65L11.06 15.65L11.06 15.65Q10.93 15.64 10.76 15.56L10.76 15.56L10.76 15.56Q10.58 15.48 10.41 15.37L10.41 15.37L10.41 15.37Q10.23 15.26 10.09 15.13L10.09 15.13L10.09 15.13Q9.95 15.01 9.91 14.90ZM20.90 9.38L20.90 9.38L20.90 9.38Q20.85 10.25 20.59 10.87L20.59 10.87L20.59 10.87Q20.34 11.49 19.87 11.96L19.87 11.96L19.87 11.96Q19.40 12.43 18.73 12.81L18.73 12.81L18.73 12.81Q18.06 13.19 17.16 13.54L17.16 13.54L17.16 13.54Q17.16 13.62 17.16 13.71L17.16 13.71L17.16 13.71Q17.15 13.80 17.15 13.90L17.15 13.90L17.15 13.90Q17.15 14.08 17.18 14.28L17.18 14.28L17.18 14.28Q17.21 14.48 17.28 14.64L17.28 14.64L17.28 14.64Q17.35 14.81 17.47 14.92L17.47 14.92L17.47 14.92Q17.60 15.02 17.79 15.02L17.79 15.02L17.79 15.02Q18.17 15.02 18.54 14.85L18.54 14.85L18.54 14.85Q18.90 14.69 19.23 14.44L19.23 14.44L19.23 14.44Q19.56 14.20 19.84 13.91L19.84 13.91L19.84 13.91Q20.13 13.62 20.36 13.38L20.36 13.38L20.36 13.38Q20.50 13.51 20.59 13.62L20.59 13.62L20.59 13.62Q19.96 14.46 19.21 15.02L19.21 15.02L19.21 15.02Q18.47 15.57 17.79 15.72L17.79 15.72L17.79 15.72Q16.83 15.61 16.29 15.02L16.29 15.02L16.29 15.02Q15.75 14.42 15.75 13.58L15.75 13.58L15.75 13.58Q15.75 13.01 15.91 12.41L15.91 12.41L15.91 12.41Q16.07 11.82 16.36 11.26L16.36 11.26L16.36 11.26Q16.65 10.71 17.03 10.22L17.03 10.22L17.03 10.22Q17.42 9.73 17.86 9.37L17.86 9.37L17.86 9.37Q18.30 9.00 18.77 8.79L18.77 8.79L18.77 8.79Q19.24 8.58 19.70 8.58L19.70 8.58L19.70 8.58Q20.34 8.67 20.90 9.38ZM19.94 9.84L19.94 9.84L19.94 9.84Q19.56 9.90 19.15 10.15L19.15 10.15L19.15 10.15Q18.75 10.40 18.39 10.82L18.39 10.82L18.39 10.82Q18.03 11.24 17.74 11.80L17.74 11.80L17.74 11.80Q17.44 12.36 17.28 13.01L17.28 13.01L17.28 13.01Q18.40 12.45 19.14 11.63L19.14 11.63L19.14 11.63Q19.88 10.81 19.94 9.84ZM20.52 19.81L20.52 19.81L20.52 19.81Q20.33 19.75 20.30 19.39L20.30 19.39L20.30 19.39Q20.24 19.21 20.22 18.96L20.22 18.96L20.22 18.96Q20.20 18.70 20.20 18.38L20.20 18.38L20.20 18.38Q20.20 18.09 20.30 17.58L20.30 17.58L20.30 17.58Q20.40 17.07 20.57 16.42L20.57 16.42L20.57 16.42Q20.75 15.78 21 15.03L21 15.03L21 15.03Q21.25 14.28 21.56 13.51L21.56 13.51L21.56 13.51Q21.94 12.54 22.22 11.84L22.22 11.84L22.22 11.84Q22.50 11.13 22.69 10.61L22.69 10.61L22.69 10.61Q22.88 10.09 22.99 9.76L22.99 9.76L22.99 9.76Q23.11 9.42 23.18 9.18L23.18 9.18L23.18 9.18Q23.24 9.02 23.35 8.78L23.35 8.78L23.35 8.78Q23.46 8.54 23.61 8.29L23.61 8.29L23.61 8.29Q23.76 8.05 23.91 7.83L23.91 7.83L23.91 7.83Q24.07 7.62 24.19 7.50L24.19 7.50L24.19 7.50Q24.68 7.57 25.12 7.76L25.12 7.76L25.12 7.76Q25.55 7.94 25.65 8.11L25.65 8.11L25.65 8.11Q25.45 8.29 25.20 8.67L25.20 8.67L25.20 8.67Q24.95 9.06 24.71 9.51L24.71 9.51L24.71 9.51Q24.47 9.97 24.28 10.44L24.28 10.44L24.28 10.44Q24.08 10.92 23.98 11.28L23.98 11.28L23.98 11.28Q24.12 11.05 24.35 10.77L24.35 10.77L24.35 10.77Q24.57 10.49 25.03 10.00L25.03 10.00L25.03 10.00Q25.55 9.46 26.00 9.18L26.00 9.18L26.00 9.18Q26.46 8.89 26.80 8.89L26.80 8.89L26.80 8.89Q27.33 8.89 27.67 9.18L27.67 9.18L27.67 9.18Q28.01 9.48 28.01 9.94L28.01 9.94L28.01 9.94Q28.01 10.95 27.68 11.94L27.68 11.94L27.68 11.94Q27.34 12.92 26.71 13.72L26.71 13.72L26.71 13.72Q26.47 14.03 26.15 14.31L26.15 14.31L26.15 14.31Q25.83 14.59 25.48 14.80L25.48 14.80L25.48 14.80Q25.13 15.02 24.79 15.15L24.79 15.15L24.79 15.15Q24.46 15.27 24.19 15.27L24.19 15.27L24.19 15.27Q23.94 15.27 23.75 15.17L23.75 15.17L23.75 15.17Q23.56 15.06 23.49 14.91L23.49 14.91L23.49 14.91Q24.04 14.59 24.56 14.01L24.56 14.01L24.56 14.01Q25.07 13.44 25.52 12.69L25.52 12.69L25.52 12.69Q25.96 11.94 26.29 11.07L26.29 11.07L26.29 11.07Q26.61 10.21 26.78 9.31L26.78 9.31L26.78 9.31Q26.25 9.59 25.82 9.92L25.82 9.92L25.82 9.92Q25.40 10.25 24.98 10.78L24.98 10.78L24.98 10.78Q24.47 11.40 24.18 11.77L24.18 11.77L24.18 11.77Q23.88 12.15 23.70 12.42L23.70 12.42L23.70 12.42Q23.51 12.68 23.39 12.91L23.39 12.91L23.39 12.91Q23.27 13.15 23.13 13.48L23.13 13.48L23.13 13.48Q22.93 13.93 22.67 14.67L22.67 14.67L22.67 14.67Q22.41 15.40 22.14 16.31L22.14 16.31L22.14 16.31Q21.87 17.22 21.59 18.25L21.59 18.25L21.59 18.25Q21.32 19.28 21.07 20.30L21.07 20.30L21.07 20.30Q20.92 20.27 20.80 20.08L20.80 20.08L20.80 20.08Q20.69 19.95 20.64 19.89L20.64 19.89L20.64 19.89Q20.59 19.84 20.52 19.81ZM28.78 14.38L28.78 14.38L28.78 14.38Q28.78 13.87 28.95 13.07L28.95 13.07L28.95 13.07Q29.11 12.26 29.36 11.33L29.36 11.33L29.36 11.33Q29.62 10.40 29.96 9.43L29.96 9.43L29.96 9.43Q30.30 8.46 30.65 7.60L30.65 7.60L30.65 7.60Q31.00 6.75 31.33 6.10L31.33 6.10L31.33 6.10Q31.67 5.46 31.93 5.18L31.93 5.18L31.93 5.18Q32.07 5.19 32.30 5.29L32.30 5.29L32.30 5.29Q32.54 5.38 32.77 5.50L32.77 5.50L32.77 5.50Q33.01 5.63 33.21 5.78L33.21 5.78L33.21 5.78Q33.40 5.92 33.46 6.05L33.46 6.05L33.46 6.05Q33.05 6.41 32.66 7.15L32.66 7.15L32.66 7.15Q32.26 7.88 31.88 8.82L31.88 8.82L31.88 8.82Q31.51 9.76 31.19 10.80L31.19 10.80L31.19 10.80Q30.87 11.84 30.63 12.82L30.63 12.82L30.63 12.82Q30.39 13.80 30.26 14.64L30.26 14.64L30.26 14.64Q30.13 15.48 30.13 16.00L30.13 16.00L30.13 16.00Q30.13 16.24 30.17 16.30L30.17 16.30L30.17 16.30Q29.86 16.28 29.72 16.19L29.72 16.19L29.72 16.19Q29.58 16.10 29.50 16.00L29.50 16.00L29.50 16.00Q29.43 15.89 29.36 15.79L29.36 15.79L29.36 15.79Q29.30 15.68 29.18 15.62L29.18 15.62L29.18 15.62Q29.08 15.58 29.01 15.43L29.01 15.43L29.01 15.43Q28.94 15.27 28.89 15.09L28.89 15.09L28.89 15.09Q28.84 14.90 28.81 14.70L28.81 14.70L28.81 14.70Q28.78 14.50 28.78 14.38ZM34.03 9.81L33.24 9.81L33.24 9.81Q33.17 9.73 33.11 9.46L33.11 9.46L33.11 9.46Q33.05 9.18 33.05 8.99L33.05 8.99L33.05 8.99Q33.42 9.02 33.75 9.04L33.75 9.04L33.75 9.04Q34.09 9.06 34.37 9.07L34.37 9.07L34.37 9.07Q34.58 8.65 34.83 8.24L34.83 8.24L34.83 8.24Q35.07 7.83 35.30 7.48L35.30 7.48L35.30 7.48Q35.53 7.14 35.73 6.90L35.73 6.90L35.73 6.90Q35.94 6.66 36.05 6.59L36.05 6.59L36.05 6.59Q36.19 6.59 36.41 6.64L36.41 6.64L36.41 6.64Q36.62 6.69 36.85 6.77L36.85 6.77L36.85 6.77Q37.07 6.85 37.25 6.93L37.25 6.93L37.25 6.93Q37.44 7.01 37.51 7.10L37.51 7.10L37.51 7.10Q37.09 7.63 36.78 8.09L36.78 8.09L36.78 8.09Q36.48 8.54 36.13 9.13L36.13 9.13L36.13 9.13Q36.41 9.13 36.70 9.11L36.70 9.11L36.70 9.11Q36.99 9.10 37.28 9.07L37.28 9.07L37.28 9.07Q37.35 9.14 37.39 9.25L37.39 9.25L37.39 9.25Q37.44 9.35 37.44 9.46L37.44 9.46L37.44 9.46Q36.75 9.72 35.77 9.74L35.77 9.74L35.77 9.74Q35.42 10.42 35.15 11.08L35.15 11.08L35.15 11.08Q34.87 11.75 34.69 12.36L34.69 12.36L34.69 12.36Q34.50 12.98 34.39 13.52L34.39 13.52L34.39 13.52Q34.29 14.07 34.29 14.50L34.29 14.50L34.29 14.50Q34.29 15.12 34.75 15.19L34.75 15.19L34.75 15.19Q35.17 15.13 35.55 14.98L35.55 14.98L35.55 14.98Q35.92 14.83 36.22 14.59L36.22 14.59L36.22 14.59Q36.30 14.71 36.32 14.80L36.32 14.80L36.32 14.80Q36.23 14.92 36.03 15.09L36.03 15.09L36.03 15.09Q35.83 15.26 35.59 15.42L35.59 15.42L35.59 15.42Q35.35 15.58 35.13 15.69L35.13 15.69L35.13 15.69Q34.90 15.81 34.79 15.82L34.79 15.82L34.79 15.82Q34.44 15.81 34.09 15.67L34.09 15.67L34.09 15.67Q33.74 15.53 33.45 15.32L33.45 15.32L33.45 15.32Q33.17 15.11 32.98 14.85L32.98 14.85L32.98 14.85Q32.80 14.59 32.80 14.34L32.80 14.34L32.80 14.34Q32.80 14 32.89 13.49L32.89 13.49L32.89 13.49Q32.98 12.98 33.15 12.38L33.15 12.38L33.15 12.38Q33.32 11.77 33.54 11.12L33.54 11.12L33.54 11.12Q33.77 10.46 34.03 9.81L34.03 9.81Z"></path></g><defs data-v-fde0c5aa=""><!----></defs><g data-v-fde0c5aa="" id="a6d5486b-a505-4f29-8875-a626b43077d4" stroke="none" fill="#29474a" transform="matrix(1.4980107605498858,0,0,1.4980107605498858,75.10014328833377,32.43354675700715)"><switch><g><path d="M90.997 39.11c7.617-7.349 10.87-18.862 7.93-29.01-.234-.796-.762-1.089-1.172-1.196-.713-.19-1.543.059-2.012.605l-.078.088-.117.039c-2.363.859-4.814 1.626-7.188 2.363-3.535 1.099-7.129 2.252-10.576 3.731-.576-3.453-1.748-6.798-3.564-9.82-.42-.708-1.016-.859-1.436-.859-.742 0-1.475.454-1.797 1.099l-.049.107-.098.068c-2.071 1.431-4.249 2.798-6.349 4.111-5.137 3.218-10.439 6.539-14.57 11.109-3.047 3.379-4.98 7.188-5.674 11.074C19.472 33.305.105 39.115.105 46.187c0 0-3.232 27.267 26.075 40.899 0 0 .278 1.025-.542 2.402-.312.557-3.638 1.031-3.638 1.929v.024c0 2.755 12.108 3.507 24.834 3.507 12.725 0 25.166-.747 25.166-3.507v-.02c0-.898-1.254-1.377-1.576-1.934-.82-1.377 1.469-2.402 1.469-2.402 26.689-12.412 26.423-36.129 26.169-40.27.039-.21.071-.415.071-.63 0-2.591-2.614-5.009-7.136-7.075zm-1.475-23.74c1.973-.596 4.004-1.216 5.967-1.891l.498-.176.088.528c1.504 9.058-2.295 18.53-9.893 24.727-4.785 3.897-11.445 5.777-19.767 5.646 2.236-1.685 4.229-3.6 5.899-5.792 4.131-5.41 6.094-12.236 5.83-18.95 3.673-1.709 7.56-2.935 11.378-4.092zM47.549 34.906c.215-3.945 2.158-7.891 5.781-11.733 3.77-3.999 8.535-6.929 13.135-9.771 1.758-1.079 3.575-2.192 5.294-3.345l.439-.298.215.488c3.76 8.375 2.51 18.502-3.262 26.432-3.917 5.376-10.499 9.063-19.571 10.958l-.439.088-.156-.728c-.811-3.911-1.651-7.96-1.436-12.091zm1.865 21.71c-24.669 0-44.67-4.57-44.67-10.21 0-5.221 17.101-9.518 39.191-10.138-.039 3.867.752 7.74 1.543 11.51l.215 1.035.039.166-.029.117c-.156.542-.01 1.226.381 1.748.215.288.703.776 1.514.776.117 0 .234-.01.352-.029 5.02-.82 9.453-2.236 13.32-4.189.088.039.166.088.264.112.107.029.225.049.342.063 10.694 1.03 19.581-1.069 26.437-6.197 3.672 1.485 5.771 3.199 5.771 5.025-.001 5.641-20.001 10.211-44.67 10.211z"></path></g></switch></g><!----></svg>